<svg width="74" height="74" viewBox="0 0 74 74" fill="none" xmlns="http://www.w3.org/2000/svg">
<path fill-rule="evenodd" clip-rule="evenodd" d="M31.1384 34.0298H45.3261C47.2839 34.0298 48.8708 35.7322 48.8708 37.8298V48.4698C48.8708 50.5674 47.2839 52.2698 45.3231 52.2698H31.1354C29.1776 52.2698 27.5908 50.5674 27.5908 48.4698V37.8298C27.5908 35.7322 29.1776 34.0298 31.1384 34.0298Z" stroke="#80BD38" stroke-width="4.56" stroke-linecap="round" stroke-linejoin="round"/>
<path fill-rule="evenodd" clip-rule="evenodd" d="M61.0308 27.8585V58.3497C61.0308 61.7089 58.31 64.4297 54.9508 64.4297H21.5108C18.1516 64.4297 15.4308 61.7089 15.4308 58.3497L15.4308 15.7897C15.4308 12.4305 18.1516 9.70975 21.5108 9.70975H43.2559C44.9005 9.70975 46.4783 10.3755 47.6213 11.5581L59.3162 23.6269C60.4167 24.7608 61.0308 26.2808 61.0308 27.8585Z" stroke="#80BD38" stroke-width="4.56" stroke-linecap="round" stroke-linejoin="round"/>
</svg>
