<svg width="66" height="66" viewBox="0 0 66 66" fill="none" xmlns="http://www.w3.org/2000/svg">
<path fill-rule="evenodd" clip-rule="evenodd" d="M59.9603 15.5176V29.9708C59.9603 31.5622 58.6687 32.8538 57.0773 32.8538H41.2262C39.6349 32.8538 38.3432 31.5622 38.3432 29.9708V9.79794C38.3432 8.20656 39.6349 6.91493 41.2262 6.91493H51.5347C52.3141 6.91493 53.0607 7.23103 53.6057 7.79237L59.1483 13.5121C59.6687 14.0489 59.9603 14.7683 59.9603 15.5176Z" stroke="#A5A5A5" stroke-width="4.08744" stroke-linecap="round" stroke-linejoin="round"/>
<path d="M40.4769 54.2502H44.9159C51.0416 54.2502 56.0092 49.2826 56.0092 43.1569" stroke="#80BD38" stroke-width="4.08744" stroke-linecap="round" stroke-linejoin="round"/>
<path d="M43.8041 57.5801L40.4769 54.2529L43.8041 50.9257" stroke="#80BD38" stroke-width="4.08744" stroke-linecap="round" stroke-linejoin="round"/>
<path d="M24.9447 11.3539H20.5057C14.38 11.3539 9.41241 16.3215 9.41241 22.4472" stroke="#80BD38" stroke-width="4.08744" stroke-linecap="round" stroke-linejoin="round"/>
<path d="M21.6174 8.02399L24.9446 11.3539L21.6174 14.6811" stroke="#80BD38" stroke-width="4.08744" stroke-linecap="round" stroke-linejoin="round"/>
<path fill-rule="evenodd" clip-rule="evenodd" d="M27.0756 41.3529V55.8061C27.0756 57.3975 25.7839 58.6891 24.1926 58.6891H8.34149C6.75012 58.6891 5.46121 57.3975 5.46121 55.8061L5.46121 35.6305C5.46121 34.0392 6.75284 32.7475 8.34422 32.7475H18.65C19.4293 32.7475 20.176 33.0636 20.721 33.625L26.2635 39.3446C26.784 39.8842 27.0756 40.6036 27.0756 41.3529Z" stroke="#80BD38" stroke-width="4.08744" stroke-linecap="round" stroke-linejoin="round"/>
</svg>
